<svg width="144" height="16" viewBox="0 0 144 16" fill="none" xmlns="http://www.w3.org/2000/svg">
<path fill-rule="evenodd" clip-rule="evenodd" d="M8.30349 15.1861C8.47677 15.486 8.76369 15.6364 9.16368 15.6364C9.75054 15.6364 10.0444 15.3499 10.0444 14.7779V1.22309C10.0444 0.991862 9.9643 0.790308 9.80404 0.619431C9.64386 0.449502 9.4506 0.363636 9.22381 0.363636C8.99694 0.363636 8.80019 0.449502 8.63345 0.619431C8.46673 0.790308 8.38368 0.991862 8.38368 1.22309V11.8538L1.76087 0.875151C1.56054 0.534568 1.26708 0.363636 0.880186 0.363636C0.293324 0.363636 0 0.650107 0 1.22309V14.7779C0 15.0091 0.0800549 15.2097 0.240312 15.3806C0.399985 15.5515 0.593267 15.6364 0.820052 15.6364C1.04684 15.6364 1.24367 15.5515 1.41039 15.3806C1.57713 15.2097 1.66068 15.0091 1.66068 14.7779V4.16672L8.30349 15.1861ZM32.8532 15.6364C34.4674 15.6364 35.7275 15.1462 36.6347 14.164C37.4484 13.278 37.8554 12.0931 37.8554 10.6074V1.28451C37.8554 1.03882 37.7654 0.823962 37.5856 0.639943C37.4052 0.455608 37.195 0.363636 36.9551 0.363636C36.7013 0.363636 36.488 0.455608 36.3148 0.639943C36.1412 0.823962 36.055 1.03882 36.055 1.28451V10.5666C36.055 11.5755 35.8147 12.3715 35.3345 12.9576C34.7873 13.6524 33.9602 14.0004 32.8532 14.0004C31.7197 14.0004 30.8855 13.6524 30.3523 12.9576C29.8723 12.3715 29.6318 11.5755 29.6318 10.5666V1.28451C29.6318 1.02559 29.5453 0.807601 29.3721 0.629687C29.1983 0.453579 28.9915 0.363636 28.7518 0.363636C28.498 0.363636 28.2847 0.453579 28.1114 0.629687C27.9382 0.807601 27.8515 1.02559 27.8515 1.28451V10.6074C27.8515 12.0931 28.2581 13.278 29.0717 14.164C29.9523 15.1462 31.2125 15.6364 32.8532 15.6364ZM63.1864 4.45321C63.1864 3.82608 62.973 3.3144 62.546 2.91937C62.0392 2.4836 61.2987 2.26568 60.325 2.26568H57.4442V7.6014H60.305C61.2657 7.6014 61.9991 7.37017 62.5059 6.90562C62.9596 6.49741 63.1864 5.97244 63.1864 5.33215V4.45321ZM65.1274 14.7574C65.1274 15.0029 65.0303 15.2097 64.837 15.3806C64.6437 15.5515 64.4269 15.6364 64.1867 15.6364C63.8531 15.6364 63.5933 15.4593 63.4066 15.1053C62.9665 14.205 62.4759 13.2718 61.9356 12.3039C61.3954 11.3359 60.7986 10.3343 60.1452 9.29789H57.4442V14.7164C57.4442 14.9753 57.3571 15.1933 57.1838 15.3702C57.0106 15.5474 56.7967 15.6364 56.5435 15.6364C56.2901 15.6364 56.0764 15.5474 55.9032 15.3702C55.7299 15.1933 55.6432 14.9753 55.6432 14.7164V1.46863C55.6432 1.22309 55.7299 1.00808 55.9032 0.823963C56.0764 0.639944 56.2901 0.547731 56.5435 0.547731H60.345C61.8926 0.547731 63.0727 0.923363 63.8866 1.67316C64.6202 2.34029 64.9873 3.26729 64.9873 4.45321V5.33215C64.9873 6.1916 64.7534 6.94037 64.2868 7.58111C63.7666 8.30335 63.026 8.77386 62.0658 8.99185C62.6792 10.014 63.233 10.9646 63.7265 11.8434C64.2202 12.7235 64.6537 13.5501 65.0274 14.3276C65.0939 14.4914 65.1274 14.6348 65.1274 14.7574ZM87.2564 2.06107C89.3902 2.06107 90.4575 3.33484 90.4575 5.8846V10.1163C90.4575 12.6784 89.3902 13.9592 87.2564 13.9592C85.1225 13.9592 84.0552 12.6784 84.0552 10.1163V5.8846C84.0552 3.33484 85.1225 2.06107 87.2564 2.06107ZM87.2564 15.6364C88.9907 15.6364 90.2914 15.0643 91.1585 13.9185C91.8785 12.9649 92.239 11.6972 92.239 10.1163V5.8846C92.239 4.31709 91.8785 3.04952 91.1585 2.08136C90.2914 0.936596 88.9907 0.363636 87.2564 0.363636C85.5091 0.363636 84.2082 0.936596 83.3551 2.08136C82.6211 3.03606 82.2546 4.30277 82.2546 5.8846V10.1163C82.2546 11.6972 82.6211 12.9649 83.3551 13.9185C84.2082 15.0643 85.5091 15.6364 87.2564 15.6364ZM118.439 15.1963C118.272 15.3672 118.068 15.4521 117.828 15.4521H110.906C110.666 15.4521 110.462 15.3672 110.295 15.1963C110.129 15.0265 110.045 14.8188 110.045 14.5733V1.28452C110.045 1.03883 110.132 0.823966 110.305 0.639947C110.478 0.455612 110.692 0.36364 110.946 0.36364C111.199 0.36364 111.412 0.455612 111.586 0.639947C111.759 0.823966 111.846 1.03883 111.846 1.28452V13.6932H117.828C118.068 13.6932 118.272 13.7792 118.439 13.9492C118.605 14.12 118.689 14.3276 118.689 14.5733C118.689 14.8188 118.605 15.0265 118.439 15.1963ZM143.139 15.4521C143.366 15.4521 143.566 15.3672 143.74 15.1963C143.913 15.0265 144 14.8188 144 14.5733C144 14.3276 143.916 14.12 143.75 13.9492C143.582 13.7792 143.379 13.6932 143.139 13.6932H137.117V8.86904H142.339C142.565 8.86904 142.759 8.78412 142.92 8.61324C143.079 8.44238 143.159 8.24191 143.159 8.01069C143.159 7.77954 143.079 7.57791 142.92 7.40703C142.759 7.23712 142.565 7.15131 142.339 7.15131H137.117V2.30664H142.84C143.079 2.30664 143.282 2.22155 143.449 2.05069C143.615 1.87981 143.7 1.67316 143.7 1.42762C143.7 1.19537 143.615 0.991865 143.449 0.813784C143.282 0.636745 143.079 0.547733 142.84 0.547733H136.176C135.936 0.547733 135.733 0.636745 135.566 0.813784C135.4 0.991865 135.315 1.19537 135.315 1.42762V14.5733C135.315 14.8188 135.4 15.0265 135.566 15.1963C135.733 15.3672 135.936 15.4521 136.176 15.4521H143.139Z" fill="#FFFAF0"/>
</svg>
